<svg xmlns="http://www.w3.org/2000/svg" width="1254" height="836" viewBox="0 0 1254 836">
<g>
<path d="M 316.39 503.09 C313.51,505.48 310.64,505.07 307.00,501.76 C305.08,500.00 303.60,498.25 303.73,497.85 C303.85,497.46 302.50,495.92 300.73,494.42 C298.95,492.93 297.50,491.33 297.50,490.87 C297.50,490.41 296.48,489.32 295.23,488.45 C293.99,487.58 293.21,486.47 293.51,485.98 C293.81,485.50 293.13,484.61 292.00,484.00 C290.87,483.39 290.21,482.47 290.54,481.94 C290.86,481.42 290.43,480.72 289.57,480.39 C288.71,480.06 288.24,479.42 288.52,478.96 C288.80,478.51 288.03,477.43 286.79,476.57 C285.56,475.71 284.99,474.99 285.53,474.97 C286.06,474.95 285.51,474.10 284.29,473.09 C283.08,472.08 282.33,471.00 282.63,470.71 C282.93,470.41 282.22,469.65 281.06,469.03 C279.90,468.41 279.21,467.47 279.54,466.94 C279.86,466.42 279.43,465.72 278.57,465.39 C277.71,465.06 277.26,464.38 277.57,463.89 C277.88,463.39 277.43,462.72 276.57,462.39 C275.71,462.06 275.26,461.38 275.57,460.89 C275.88,460.39 275.43,459.72 274.57,459.39 C273.71,459.06 273.26,458.39 273.56,457.90 C273.87,457.40 273.61,457.00 273.00,457.00 C272.39,457.00 272.13,456.61 272.42,456.13 C272.72,455.64 271.89,454.10 270.59,452.69 C269.28,451.28 268.45,449.88 268.75,449.59 C269.04,449.29 268.55,448.76 267.65,448.42 C266.75,448.07 266.26,447.39 266.56,446.90 C266.87,446.40 266.61,446.00 266.00,446.00 C265.39,446.00 265.16,445.55 265.50,444.99 C265.85,444.44 265.43,443.72 264.57,443.39 C263.71,443.06 263.26,442.39 263.56,441.90 C263.87,441.40 263.61,441.00 263.00,441.00 C262.39,441.00 262.12,440.62 262.41,440.15 C262.69,439.68 262.07,438.38 261.03,437.26 C259.98,436.13 259.39,434.94 259.73,434.61 C260.06,434.27 259.78,434.00 259.11,434.00 C258.43,434.00 258.15,433.57 258.48,433.04 C258.80,432.51 258.19,431.19 257.12,430.12 C256.05,429.05 255.43,427.90 255.75,427.58 C256.07,427.26 255.78,427.00 255.11,427.00 C254.43,427.00 254.16,426.55 254.50,426.00 C254.84,425.45 254.61,425.00 254.00,425.00 C253.39,425.00 253.14,424.59 253.45,424.08 C253.76,423.57 253.36,422.50 252.56,421.70 C251.75,420.90 251.37,419.96 251.71,419.62 C252.05,419.28 251.78,419.00 251.11,419.00 C250.43,419.00 250.16,418.55 250.50,418.00 C250.84,417.45 250.61,417.00 250.00,417.00 C249.39,417.00 249.16,416.55 249.50,416.00 C249.84,415.45 249.61,415.00 249.00,415.00 C248.39,415.00 248.16,414.55 248.50,414.00 C248.84,413.45 248.61,413.00 248.00,413.00 C247.39,413.00 247.16,412.55 247.50,412.00 C247.84,411.45 247.61,411.00 247.00,411.00 C246.39,411.00 246.14,410.58 246.45,410.07 C247.17,408.92 245.00,404.00 243.78,404.00 C243.29,404.00 243.16,403.55 243.50,403.00 C243.84,402.45 243.59,402.00 242.95,402.00 C242.31,402.00 242.05,401.33 242.36,400.50 C242.68,399.67 242.47,399.00 241.91,399.00 C241.34,399.00 241.14,398.58 241.45,398.07 C242.08,397.05 240.06,391.87 238.64,390.86 C238.15,390.51 238.05,389.72 238.43,389.11 C238.81,388.50 238.63,388.00 238.04,388.00 C237.39,388.00 237.21,387.01 237.59,385.50 C237.97,383.99 237.79,383.00 237.14,383.00 C236.55,383.00 236.32,382.33 236.64,381.50 C236.95,380.67 236.83,380.00 236.36,379.99 C234.05,379.97 233.97,344.63 236.28,342.92 C236.70,342.61 237.15,340.92 237.28,339.18 C237.40,337.43 237.82,336.00 238.22,336.00 C238.61,336.00 238.68,335.33 238.36,334.50 C238.05,333.67 238.25,333.00 238.83,333.00 C239.86,333.00 241.58,329.19 241.20,327.75 C241.09,327.34 241.48,327.00 242.06,327.00 C242.64,327.00 242.84,326.55 242.50,326.00 C242.16,325.45 242.39,325.00 243.00,325.00 C243.61,325.00 243.87,324.60 243.56,324.10 C243.26,323.61 243.71,322.94 244.57,322.61 C245.43,322.28 245.88,321.61 245.57,321.11 C245.26,320.62 245.69,319.95 246.52,319.63 C247.34,319.32 247.94,318.71 247.84,318.28 C247.60,317.27 260.80,304.00 262.05,304.00 C262.57,304.00 263.00,303.55 263.00,303.00 C263.00,302.45 263.67,302.00 264.50,302.00 C265.33,302.00 266.00,301.55 266.00,301.00 C266.00,300.45 266.67,300.00 267.50,300.00 C268.33,300.00 269.00,299.55 269.00,299.00 C269.00,298.45 269.66,298.00 270.47,298.00 C272.50,298.00 279.00,294.81 279.00,293.81 C279.00,293.37 280.12,293.00 281.50,293.00 C282.88,293.00 284.00,292.50 284.00,291.88 C284.00,291.26 284.88,291.00 286.00,291.29 C287.10,291.58 288.00,291.45 288.00,291.01 C288.00,290.57 289.01,290.23 290.25,290.24 C291.49,290.26 296.10,289.72 300.50,289.03 C305.63,288.24 311.19,288.07 316.00,288.56 C320.12,288.98 324.66,289.40 326.08,289.50 C327.49,289.59 329.18,289.99 329.83,290.39 C330.47,290.79 331.45,290.84 332.00,290.50 C332.55,290.16 333.00,290.41 333.00,291.05 C333.00,291.73 333.70,291.95 334.67,291.57 C335.59,291.22 336.64,291.42 337.01,292.02 C337.38,292.61 338.65,293.17 339.84,293.26 C341.03,293.35 342.00,293.81 342.00,294.27 C342.00,294.74 342.45,294.84 343.00,294.50 C343.55,294.16 344.00,294.39 344.00,295.00 C344.00,295.61 344.45,295.84 345.00,295.50 C345.55,295.16 346.00,295.39 346.00,296.00 C346.00,296.61 346.45,296.84 347.00,296.50 C347.55,296.16 348.00,296.39 348.00,297.00 C348.00,297.61 348.45,297.84 349.00,297.50 C349.55,297.16 350.00,297.39 350.00,298.00 C350.00,298.61 350.40,298.87 350.90,298.56 C351.39,298.26 352.06,298.71 352.39,299.57 C352.72,300.43 353.44,300.84 354.00,300.50 C354.56,300.16 355.28,300.57 355.61,301.43 C355.94,302.29 356.62,302.74 357.11,302.43 C357.61,302.12 358.28,302.58 358.61,303.44 C358.94,304.30 359.74,305.00 360.39,305.00 C361.67,305.00 372.00,315.08 372.00,316.32 C372.00,316.74 372.90,318.05 374.00,319.23 C375.65,321.01 378.69,326.69 384.11,338.14 C385.59,341.29 388.00,356.27 388.00,362.36 C387.99,369.77 385.62,384.98 383.57,390.81 C382.08,395.03 380.42,398.94 376.91,406.50 C375.89,408.70 373.23,414.53 370.99,419.46 C368.76,424.39 366.61,428.67 366.22,428.96 C365.82,429.26 364.48,431.52 363.24,434.00 C360.22,440.00 355.87,447.38 354.99,448.00 C354.59,448.27 353.95,449.51 353.57,450.75 C353.18,451.99 352.45,453.00 351.93,453.00 C351.42,453.00 351.00,453.59 351.00,454.31 C351.00,455.03 350.21,456.50 349.25,457.56 C348.29,458.63 346.86,460.74 346.08,462.25 C345.30,463.76 344.29,465.00 343.83,465.00 C343.37,465.00 343.00,465.51 343.00,466.13 C343.00,467.44 336.10,477.34 334.85,477.83 C334.38,478.02 334.00,478.60 334.00,479.13 C334.00,480.03 333.18,481.19 330.25,484.46 C329.56,485.23 329.00,486.16 329.00,486.54 C329.00,487.46 320.86,497.29 319.26,498.30 C318.57,498.74 318.00,499.70 318.00,500.43 C318.00,501.16 317.28,502.36 316.39,503.09 ZM 910.00 502.98 C890.57,505.03 882.10,505.38 848.00,505.47 C826.28,505.54 809.62,505.33 810.98,505.00 C813.88,504.32 778.33,500.59 769.50,500.66 C765.59,500.68 764.37,500.46 766.00,500.00 C767.90,499.48 766.90,499.13 761.83,498.55 C758.16,498.13 754.60,498.13 753.92,498.55 C753.16,499.02 752.95,498.90 753.36,498.22 C754.18,496.90 745.75,495.42 743.92,496.55 C743.08,497.07 742.95,496.89 743.50,496.00 C744.14,494.97 743.38,494.82 739.90,495.30 C737.25,495.67 736.29,495.59 737.50,495.09 C739.06,494.46 738.35,494.12 734.30,493.55 C731.43,493.15 728.55,493.16 727.89,493.57 C727.08,494.07 726.95,493.88 727.49,493.01 C728.10,492.03 727.65,491.83 725.68,492.21 C724.09,492.51 723.30,492.32 723.67,491.72 C724.06,491.09 722.87,490.95 720.39,491.34 C717.62,491.78 717.07,491.69 718.50,491.03 C720.24,490.23 720.10,490.11 717.50,490.13 C713.02,490.17 696.67,487.17 692.84,485.61 C691.00,484.86 687.26,483.92 684.51,483.53 C681.77,483.13 678.40,482.24 677.01,481.55 C675.63,480.86 671.58,479.73 668.00,479.05 C664.42,478.37 661.05,477.46 660.50,477.03 C659.95,476.60 657.92,475.95 656.00,475.59 C647.70,474.02 646.45,473.71 645.50,473.00 C644.95,472.59 642.03,471.70 639.00,471.02 C635.97,470.34 632.72,469.38 631.76,468.89 C630.81,468.40 629.20,468.00 628.19,468.00 C627.18,468.00 624.36,467.37 621.93,466.60 C619.49,465.83 614.12,464.23 610.00,463.05 C605.88,461.87 600.92,460.40 599.00,459.79 C597.08,459.18 592.12,457.88 588.00,456.91 C570.32,452.73 566.26,451.73 562.00,450.49 C559.53,449.77 554.80,448.67 551.50,448.04 C548.20,447.41 544.60,446.50 543.50,446.01 C541.46,445.11 538.14,444.56 527.50,443.39 C524.20,443.03 521.04,442.38 520.48,441.94 C519.92,441.50 515.65,440.65 510.98,440.06 C468.81,434.67 458.83,433.96 421.77,433.73 C390.99,433.53 386.55,433.31 386.88,432.00 C387.08,431.17 387.27,429.94 387.29,429.25 C387.32,428.56 387.73,428.00 388.23,428.00 C388.72,428.00 388.84,427.55 388.50,427.00 C388.16,426.45 388.39,426.00 389.00,426.00 C389.61,426.00 389.84,425.55 389.50,425.00 C389.16,424.45 389.39,424.00 390.00,424.00 C390.61,424.00 390.84,423.55 390.50,423.00 C390.16,422.45 390.39,422.00 391.00,422.00 C391.61,422.00 391.84,421.55 391.50,421.00 C391.16,420.45 391.39,420.00 392.00,420.00 C392.61,420.00 392.84,419.55 392.50,419.00 C392.16,418.45 392.39,418.00 393.00,418.00 C393.61,418.00 393.86,417.59 393.55,417.09 C393.24,416.58 393.43,416.02 393.96,415.84 C394.50,415.65 395.12,414.38 395.33,413.00 C395.70,410.65 396.04,410.52 400.86,410.84 C404.21,411.06 406.00,410.79 406.00,410.06 C406.00,409.29 407.56,409.14 410.96,409.59 C413.68,409.95 416.72,409.91 417.71,409.50 C420.36,408.40 449.15,408.90 476.75,410.54 C490.08,411.32 503.58,411.80 506.75,411.60 C510.95,411.33 511.42,411.40 508.50,411.88 C505.35,412.39 507.40,412.81 518.14,413.87 C525.64,414.60 532.84,414.91 534.14,414.54 C536.05,414.00 536.21,414.09 535.00,415.01 C533.84,415.90 534.74,416.04 539.00,415.64 C542.03,415.36 543.42,415.45 542.09,415.84 C539.03,416.74 566.88,421.22 572.00,420.65 C573.92,420.44 574.38,420.47 573.00,420.73 C571.53,421.00 578.33,422.81 589.50,425.12 C599.95,427.28 609.29,428.85 610.25,428.62 C611.29,428.36 611.74,428.61 611.36,429.23 C610.93,429.93 612.01,430.07 614.61,429.66 C616.91,429.30 617.71,429.37 616.57,429.85 C615.09,430.47 616.06,430.95 620.73,431.94 C624.07,432.65 627.37,432.89 628.06,432.46 C628.83,431.99 629.06,432.10 628.65,432.76 C627.81,434.11 645.81,438.35 648.56,437.45 C650.19,436.91 650.26,437.00 649.00,437.99 C647.80,438.93 648.20,439.05 651.00,438.59 C652.99,438.25 653.95,438.36 653.22,438.83 C651.45,439.97 659.04,442.42 662.39,441.78 C663.79,441.51 664.74,441.62 664.49,442.02 C664.24,442.42 666.17,443.29 668.77,443.96 C671.37,444.62 674.41,445.53 675.53,445.96 C676.65,446.40 679.27,446.66 681.35,446.53 C683.49,446.40 684.58,446.64 683.87,447.08 C682.31,448.05 686.90,449.36 692.15,449.44 C694.16,449.47 695.64,449.76 695.45,450.08 C694.86,451.04 710.92,455.31 715.51,455.41 C717.88,455.46 719.36,455.77 718.82,456.11 C717.21,457.10 751.52,465.28 754.16,464.53 C755.71,464.09 756.06,464.18 755.18,464.78 C753.60,465.88 764.27,468.43 770.65,468.47 C772.94,468.49 774.35,468.78 773.80,469.13 C772.78,469.75 778.79,471.20 797.50,474.86 C816.69,478.61 824.55,480.00 832.00,480.97 C836.12,481.51 846.47,482.86 855.00,483.97 C883.54,487.70 914.50,489.25 951.78,488.80 C978.83,488.47 985.97,488.65 985.59,489.63 C985.33,490.31 985.65,491.09 986.31,491.37 C986.96,491.64 985.97,491.60 984.09,491.28 C981.82,490.88 980.91,491.04 981.35,491.75 C981.77,492.43 981.23,492.61 979.85,492.25 C978.38,491.87 977.91,492.05 978.40,492.83 C978.86,493.58 978.56,493.77 977.54,493.38 C976.69,493.05 974.30,493.11 972.24,493.51 C969.05,494.13 968.79,494.36 970.50,495.08 C971.74,495.60 970.84,495.68 968.10,495.30 C964.62,494.82 963.86,494.97 964.50,496.00 C965.05,496.89 964.92,497.07 964.09,496.56 C963.42,496.14 957.84,496.61 951.69,497.60 C943.99,498.84 941.28,499.59 943.00,500.02 C944.41,500.38 942.67,500.64 939.00,500.62 C935.42,500.61 922.38,501.67 910.00,502.98 ZM 297.99 400.66 C302.15,402.13 306.82,402.97 310.93,402.98 C317.58,403.00 329.00,400.40 329.00,398.87 C329.00,398.39 329.90,398.00 331.00,398.00 C332.10,398.00 333.90,397.10 335.00,396.00 C336.10,394.90 337.26,394.00 337.58,394.00 C338.63,394.00 347.51,384.65 347.25,383.82 C347.11,383.37 347.44,383.00 347.98,383.00 C349.26,383.00 353.24,375.19 352.53,374.05 C352.23,373.57 352.50,373.00 353.14,372.79 C354.83,372.22 355.69,352.00 354.03,352.00 C353.20,352.00 352.99,351.16 353.41,349.50 C353.79,347.99 353.61,347.00 352.96,347.00 C352.37,347.00 352.15,346.57 352.48,346.03 C353.22,344.83 349.32,337.00 347.98,337.00 C347.44,337.00 347.09,336.66 347.19,336.25 C347.49,335.12 336.23,324.17 333.12,322.56 C329.21,320.54 319.18,317.32 314.38,316.54 C310.27,315.87 298.41,317.47 296.50,318.95 C295.95,319.38 294.27,320.02 292.78,320.37 C291.28,320.73 289.14,322.00 288.03,323.20 C286.91,324.40 285.99,324.95 285.97,324.44 C285.95,323.92 285.48,324.29 284.92,325.25 C284.36,326.21 283.39,327.00 282.76,327.00 C281.21,327.00 277.00,331.07 277.00,332.57 C277.00,333.24 276.31,334.05 275.47,334.37 C271.80,335.78 267.55,350.25 267.65,361.00 C267.76,372.09 271.09,379.73 279.65,388.51 C286.78,395.83 289.61,397.70 297.99,400.66 ZM 353.40 492.84 C353.80,493.48 353.98,493.94 353.81,493.86 C353.64,493.79 352.53,493.54 351.33,493.31 C348.70,492.79 347.47,490.14 349.51,489.36 C350.32,489.05 350.75,488.41 350.47,487.95 C350.18,487.48 350.90,486.59 352.06,485.97 C353.22,485.35 353.97,484.63 353.72,484.38 C353.47,484.13 354.55,482.55 356.13,480.86 C357.70,479.18 358.77,477.44 358.50,477.00 C358.23,476.57 358.71,475.94 359.57,475.61 C360.43,475.28 360.88,474.61 360.57,474.11 C360.26,473.62 360.71,472.94 361.57,472.61 C362.43,472.28 362.88,471.61 362.57,471.11 C362.26,470.62 362.71,469.94 363.57,469.61 C364.43,469.28 364.88,468.61 364.57,468.11 C364.26,467.62 364.71,466.94 365.57,466.61 C366.43,466.28 366.88,465.61 366.57,465.11 C366.26,464.62 366.71,463.94 367.57,463.61 C368.43,463.28 368.88,462.61 368.57,462.11 C368.26,461.62 368.71,460.94 369.57,460.61 C370.43,460.28 370.85,459.56 370.50,459.01 C370.16,458.45 370.39,458.00 371.00,458.00 C371.61,458.00 371.87,457.60 371.56,457.10 C371.26,456.61 371.71,455.94 372.57,455.61 C373.43,455.28 373.85,454.56 373.50,454.01 C373.16,453.45 373.39,453.00 374.00,453.00 C374.61,453.00 374.84,452.55 374.50,451.99 C374.15,451.44 374.57,450.72 375.43,450.39 C376.29,450.06 376.76,449.42 376.48,448.97 C375.65,447.63 378.87,447.17 389.96,447.06 C395.71,447.00 400.66,446.60 400.96,446.18 C401.26,445.75 414.33,445.71 430.00,446.08 C445.67,446.45 460.64,446.52 463.25,446.24 C466.40,445.90 468.00,446.10 468.00,446.84 C468.00,447.59 469.48,447.76 472.50,447.34 C475.78,446.89 477.00,447.07 477.00,447.99 C477.00,448.91 478.11,449.08 481.00,448.62 C483.68,448.19 485.00,448.35 485.00,449.10 C485.00,449.77 486.03,450.04 487.50,449.76 C488.88,449.49 490.00,449.72 490.00,450.27 C490.00,450.84 491.47,451.02 493.50,450.69 C495.64,450.35 497.00,450.53 497.00,451.17 C497.00,451.84 498.33,451.97 500.65,451.54 C502.91,451.11 504.55,451.27 504.96,451.94 C505.33,452.53 507.51,453.13 509.81,453.26 C512.11,453.39 513.99,453.89 513.99,454.37 C514.00,454.84 515.12,455.02 516.50,454.76 C517.88,454.49 519.00,454.69 519.00,455.18 C519.00,455.68 520.58,455.80 522.50,455.43 C524.64,455.03 526.00,455.17 526.00,455.80 C526.00,456.35 526.90,456.58 528.00,456.29 C529.20,455.98 530.00,456.26 530.00,457.00 C530.00,457.73 530.80,458.03 531.95,457.72 C533.03,457.44 534.04,457.62 534.21,458.13 C534.38,458.63 535.97,459.15 537.76,459.27 C539.54,459.40 541.00,459.87 541.00,460.32 C541.00,460.77 541.84,460.87 542.87,460.54 C543.90,460.22 546.03,460.48 547.62,461.14 C549.20,461.79 550.84,462.25 551.25,462.16 C551.66,462.07 552.00,462.50 552.00,463.11 C552.00,463.72 552.67,463.95 553.50,463.64 C554.33,463.32 555.00,463.53 555.00,464.10 C555.00,464.68 555.88,464.86 557.00,464.50 C558.19,464.12 559.00,464.32 559.00,464.99 C559.00,465.61 559.50,465.81 560.11,465.43 C560.72,465.05 561.51,465.15 561.86,465.64 C562.87,467.06 568.05,469.08 569.07,468.45 C569.58,468.14 570.00,468.41 570.00,469.05 C570.00,469.69 570.67,469.95 571.50,469.64 C572.33,469.32 573.00,469.57 573.00,470.20 C573.00,470.82 573.28,471.05 573.62,470.71 C573.96,470.37 574.93,470.78 575.77,471.63 C576.61,472.47 578.13,472.94 579.15,472.67 C580.29,472.37 580.75,472.59 580.35,473.25 C579.92,473.93 580.46,474.11 581.85,473.75 C583.03,473.44 583.77,473.56 583.49,474.02 C582.79,475.15 586.69,476.31 588.15,475.41 C588.83,474.99 589.04,475.12 588.66,475.74 C588.30,476.32 588.80,477.14 589.76,477.56 C592.74,478.88 584.27,479.64 576.00,478.80 C532.00,474.35 456.82,473.92 429.00,477.97 C425.42,478.49 417.78,479.45 412.01,480.10 C406.23,480.75 400.83,481.64 400.01,482.07 C399.18,482.49 394.56,483.38 389.74,484.03 C384.93,484.68 380.74,485.61 380.44,486.10 C380.13,486.60 378.87,487.00 377.62,487.00 C376.38,487.00 372.02,487.95 367.93,489.10 C363.84,490.26 359.49,491.21 358.26,491.21 C357.02,491.21 356.24,491.57 356.51,492.01 C356.78,492.45 356.03,492.56 354.85,492.25 C353.37,491.86 352.91,492.05 353.40,492.84 ZM 157.50 468.02 C153.59,469.75 148.46,470.64 146.00,470.01 L 143.50 469.38 L 145.78 468.14 C147.03,467.46 147.80,466.48 147.48,465.96 C147.16,465.45 147.55,465.27 148.35,465.58 C149.14,465.89 150.14,465.59 150.55,464.91 C151.07,464.08 150.89,463.95 150.00,464.50 C149.15,465.02 148.93,464.92 149.38,464.20 C149.76,463.59 150.80,463.37 151.70,463.71 C152.78,464.13 153.09,463.95 152.61,463.18 C152.13,462.40 152.46,462.24 153.61,462.68 C154.77,463.13 155.09,462.96 154.61,462.18 C154.13,461.40 154.46,461.24 155.61,461.68 C156.77,462.13 157.09,461.96 156.61,461.18 C156.13,460.40 156.46,460.24 157.61,460.68 C158.77,461.13 159.09,460.96 158.61,460.18 C158.13,459.40 158.46,459.24 159.61,459.68 C160.77,460.13 161.09,459.96 160.61,459.18 C160.13,458.40 160.46,458.24 161.61,458.68 C162.77,459.13 163.09,458.96 162.61,458.18 C162.13,457.40 162.46,457.24 163.61,457.68 C164.77,458.13 165.09,457.96 164.61,457.18 C164.17,456.46 164.41,456.22 165.26,456.55 C167.02,457.22 172.21,454.57 171.23,453.49 C170.83,453.04 171.09,453.02 171.81,453.44 C173.40,454.35 179.20,452.13 178.44,450.90 C178.14,450.42 178.67,450.32 179.61,450.68 C180.77,451.13 181.09,450.96 180.61,450.18 C180.14,449.42 180.43,449.23 181.45,449.62 C182.33,449.96 183.00,449.69 183.00,449.00 C183.00,448.33 183.66,448.04 184.47,448.35 C185.28,448.66 186.65,448.21 187.52,447.34 C188.39,446.47 189.35,446.02 189.67,446.33 C189.98,446.65 190.92,446.23 191.75,445.39 C192.58,444.56 193.85,444.11 194.56,444.39 C195.28,444.66 196.03,444.42 196.22,443.85 C196.41,443.28 197.78,442.74 199.28,442.66 C200.78,442.57 202.00,442.22 202.00,441.88 C202.00,441.53 203.18,441.25 204.61,441.25 C206.05,441.25 207.58,440.69 208.00,440.00 C208.43,439.31 209.24,439.03 209.80,439.38 C210.37,439.73 211.00,439.50 211.21,438.87 C211.42,438.25 213.03,437.68 214.79,437.62 C216.55,437.55 218.00,437.11 218.00,436.64 C218.00,436.17 218.68,436.05 219.50,436.36 C220.32,436.68 221.00,436.59 221.00,436.16 C221.00,435.07 230.70,432.69 231.96,433.48 C232.53,433.83 233.00,433.73 233.00,433.26 C233.00,432.78 234.56,432.35 236.46,432.30 C239.58,432.21 240.14,432.63 242.21,436.66 C243.47,439.11 245.12,442.29 245.88,443.72 C247.12,446.05 247.07,446.48 245.44,447.67 C244.44,448.40 242.10,449.00 240.24,449.00 C238.39,449.00 236.05,449.44 235.06,449.97 C234.06,450.50 227.94,451.63 221.46,452.48 C214.97,453.33 209.18,454.42 208.58,454.90 C207.99,455.38 204.12,456.34 200.00,457.04 C195.88,457.74 192.05,458.65 191.50,459.05 C190.95,459.46 186.71,460.56 182.07,461.50 C177.44,462.44 172.94,463.56 172.07,464.00 C171.21,464.43 168.02,465.32 165.00,465.96 C161.98,466.61 158.60,467.54 157.50,468.02 ZM 549.25 416.34 C549.94,416.62 549.38,416.84 548.00,416.84 C546.62,416.84 546.06,416.62 546.75,416.34 C547.44,416.06 548.56,416.06 549.25,416.34 ZM 669.73 442.40 C670.06,442.73 669.47,442.96 668.42,442.92 C667.25,442.87 667.01,442.64 667.81,442.32 C668.53,442.03 669.40,442.06 669.73,442.40 Z" fill="rgb(3,125,133)"/>
<path d="M 986.47 491.45 C986.43,491.42 986.38,491.40 986.31,491.37 C985.65,491.09 985.33,490.31 985.59,489.63 C985.97,488.65 978.83,488.47 951.78,488.80 C914.50,489.25 883.54,487.70 855.00,483.97 C846.47,482.86 836.12,481.51 832.00,480.97 C824.55,480.00 816.69,478.61 797.50,474.86 C778.79,471.20 772.78,469.75 773.80,469.13 C774.35,468.78 772.94,468.49 770.65,468.47 C764.27,468.43 753.60,465.88 755.18,464.78 C756.06,464.18 755.71,464.09 754.16,464.53 C751.52,465.28 717.21,457.10 718.82,456.11 C719.36,455.77 717.88,455.46 715.51,455.41 C710.92,455.31 694.86,451.04 695.45,450.08 C695.64,449.76 694.16,449.47 692.15,449.44 C686.90,449.36 682.31,448.05 683.87,447.08 C684.58,446.64 683.49,446.40 681.35,446.53 C679.27,446.66 676.65,446.40 675.53,445.96 C674.41,445.53 671.37,444.62 668.77,443.96 C666.17,443.29 664.24,442.42 664.49,442.02 C664.74,441.62 663.79,441.51 662.39,441.78 C659.04,442.42 651.45,439.97 653.22,438.83 C653.35,438.75 653.42,438.67 653.45,438.61 C654.13,438.79 654.82,438.96 655.50,439.13 C659.80,440.22 663.94,441.27 667.93,442.27 C667.89,442.29 667.85,442.30 667.81,442.32 C667.01,442.64 667.25,442.87 668.42,442.92 C669.06,442.95 669.53,442.87 669.72,442.73 C733.27,458.80 758.03,464.96 765.00,466.46 C769.12,467.34 774.30,468.48 776.50,468.99 C810.43,476.84 844.20,481.94 890.50,486.20 C917.19,488.65 983.57,487.66 1006.00,484.46 C1009.24,484.00 1009.32,484.05 1007.00,485.07 C1004.71,486.09 995.48,488.92 986.47,491.45 ZM 910.00 502.98 C922.38,501.67 935.42,500.61 939.00,500.62 C942.67,500.64 944.41,500.38 943.00,500.02 C941.28,499.59 943.99,498.84 951.69,497.60 C957.84,496.61 963.42,496.14 964.09,496.56 C964.30,496.69 964.46,496.77 964.59,496.81 C945.72,500.67 922.41,503.68 897.00,505.51 C860.21,508.16 811.68,506.93 779.76,502.56 C775.61,501.99 771.15,501.33 766.58,500.61 C767.27,500.65 768.25,500.67 769.50,500.66 C778.33,500.59 813.88,504.32 810.98,505.00 C809.62,505.33 826.28,505.54 848.00,505.47 C882.10,505.38 890.57,505.03 910.00,502.98 ZM 509.35 411.46 C508.75,411.48 507.88,411.53 506.75,411.60 C503.58,411.80 490.08,411.32 476.75,410.54 C449.15,408.90 420.36,408.40 417.71,409.50 C417.46,409.61 417.07,409.69 416.59,409.74 C417.44,409.61 418.06,409.36 418.50,409.00 C419.70,408.01 426.13,407.85 447.77,408.28 C470.57,408.74 490.20,409.69 509.35,411.46 ZM 616.53 429.44 C616.12,429.45 615.46,429.53 614.61,429.66 C612.01,430.07 610.93,429.93 611.36,429.23 C611.74,428.61 611.29,428.36 610.25,428.62 C609.29,428.85 599.95,427.28 589.50,425.12 C578.33,422.81 571.53,421.00 573.00,420.73 C573.34,420.67 573.57,420.62 573.69,420.58 C584.69,422.61 596.33,424.96 609.00,427.66 C610.21,427.92 612.86,428.55 616.53,429.44 ZM 573.38 420.52 C573.08,420.54 572.61,420.58 572.00,420.65 C566.88,421.22 539.03,416.74 542.09,415.84 C543.42,415.45 542.03,415.36 539.00,415.64 C534.74,416.04 533.84,415.90 535.00,415.01 C535.33,414.76 535.55,414.58 535.67,414.44 C539.60,414.97 543.56,415.54 547.57,416.15 C547.27,416.18 546.98,416.24 546.75,416.34 C546.06,416.62 546.62,416.84 548.00,416.84 C549.20,416.84 549.78,416.67 549.45,416.44 C557.16,417.64 565.09,418.99 573.38,420.52 ZM 534.88 414.34 C534.67,414.39 534.42,414.46 534.14,414.54 C532.84,414.91 525.64,414.60 518.14,413.87 C507.40,412.81 505.35,412.39 508.50,411.88 C509.44,411.72 510.03,411.61 510.26,411.54 C518.47,412.31 526.61,413.24 534.88,414.34 ZM 147.94 470.95 C139.26,473.30 139.00,473.33 139.00,472.04 C139.00,471.14 143.79,467.65 149.33,464.28 C148.95,464.93 149.19,465.00 150.00,464.50 C150.89,463.95 151.07,464.08 150.55,464.91 C150.14,465.59 149.14,465.89 148.35,465.58 C147.55,465.27 147.16,465.45 147.48,465.96 C147.80,466.48 147.03,467.46 145.78,468.14 L 143.50 469.38 L 146.00 470.01 C147.52,470.40 150.04,470.21 152.67,469.60 C151.20,470.04 149.56,470.51 147.94,470.95 ZM 562.61 477.64 C567.31,477.99 571.80,478.38 576.00,478.80 C584.27,479.64 592.74,478.88 589.76,477.56 C588.80,477.14 588.30,476.32 588.66,475.74 C588.71,475.66 588.75,475.58 588.78,475.51 C592.90,477.30 596.26,479.00 596.16,479.50 C595.91,480.79 591.10,480.68 577.50,479.07 C573.03,478.54 568.02,478.06 562.61,477.64 ZM 648.68 437.41 L 648.56 437.45 C645.81,438.35 627.81,434.11 628.65,432.76 C628.72,432.64 628.78,432.53 628.81,432.45 C634.77,433.92 641.60,435.63 648.68,437.41 ZM 171.21 453.46 C171.22,453.47 171.23,453.48 171.23,453.49 C172.21,454.57 167.02,457.22 165.26,456.55 C164.41,456.22 164.17,456.46 164.61,457.18 C165.09,457.96 164.77,458.13 163.61,457.68 C162.46,457.24 162.13,457.40 162.61,458.18 C163.09,458.96 162.77,459.13 161.61,458.68 C160.46,458.24 160.13,458.40 160.61,459.18 C161.09,459.96 160.77,460.13 159.61,459.68 C158.46,459.24 158.13,459.40 158.61,460.18 C159.09,460.96 158.77,461.13 157.61,460.68 C156.46,460.24 156.13,460.40 156.61,461.18 C157.09,461.96 156.77,462.13 155.61,461.68 C154.46,461.24 154.13,461.40 154.61,462.18 C155.09,462.96 154.77,463.13 153.61,462.68 C152.46,462.24 152.13,462.40 152.61,463.18 C153.09,463.95 152.78,464.13 151.70,463.71 C151.31,463.56 150.89,463.52 150.51,463.57 C152.62,462.32 154.79,461.11 156.81,460.09 C161.04,457.96 166.35,455.54 171.21,453.46 ZM 971.05 495.42 C971.04,495.34 970.86,495.23 970.50,495.08 C968.79,494.36 969.05,494.13 972.24,493.51 C974.30,493.11 976.69,493.05 977.54,493.38 C978.56,493.77 978.86,493.58 978.40,492.83 C977.91,492.05 978.38,491.87 979.85,492.25 C981.23,492.61 981.77,492.43 981.35,491.75 C980.91,491.04 981.82,490.88 984.09,491.28 C985.01,491.43 985.71,491.52 986.12,491.54 C983.12,492.38 980.16,493.18 977.50,493.86 C975.43,494.39 973.27,494.91 971.05,495.42 ZM 353.28 493.72 C343.11,497.11 343.29,496.54 348.49,490.76 C348.55,491.78 349.66,492.98 351.33,493.31 C352.09,493.45 352.81,493.61 353.28,493.72 ZM 588.32 475.31 C588.26,475.34 588.21,475.37 588.15,475.41 C586.69,476.31 582.79,475.15 583.49,474.02 C583.77,473.56 583.03,473.44 581.85,473.75 C580.46,474.11 579.92,473.93 580.35,473.25 C580.75,472.59 580.29,472.37 579.15,472.67 C578.13,472.94 576.61,472.47 575.77,471.63 C574.93,470.78 573.96,470.37 573.62,470.71 C573.28,471.05 573.00,470.82 573.00,470.20 C573.00,469.57 572.33,469.32 571.50,469.64 C572.33,469.32 573.00,469.48 573.00,470.00 C573.00,470.52 573.56,470.74 574.25,470.50 C575.25,470.15 582.44,472.78 588.32,475.31 ZM 628.30 432.32 C628.23,432.36 628.15,432.41 628.06,432.46 C627.37,432.89 624.07,432.65 620.73,431.94 C616.06,430.95 615.09,430.47 616.57,429.85 C616.86,429.73 617.02,429.63 617.07,429.57 C620.20,430.33 624.02,431.26 628.30,432.32 ZM 765.35 500.41 C761.58,499.81 757.75,499.18 753.96,498.53 C754.71,498.13 758.22,498.13 761.83,498.55 C766.90,499.13 767.90,499.48 766.00,500.00 C765.40,500.17 765.18,500.31 765.35,500.41 ZM 737.00 495.45 C733.71,494.82 730.62,494.20 727.82,493.61 C727.84,493.60 727.87,493.58 727.89,493.57 C728.55,493.16 731.43,493.15 734.30,493.55 C738.35,494.12 739.06,494.46 737.50,495.09 C737.10,495.26 736.94,495.38 737.00,495.45 ZM 753.26 498.41 C750.00,497.84 746.78,497.27 743.66,496.70 C745.75,495.42 754.18,496.90 753.36,498.22 C753.32,498.29 753.29,498.35 753.26,498.41 ZM 180.41 449.76 C180.44,449.87 180.51,450.01 180.61,450.18 C181.09,450.96 180.77,451.13 179.61,450.68 C178.67,450.32 178.14,450.42 178.44,450.90 C179.20,452.13 173.40,454.35 171.81,453.44 C171.73,453.39 171.65,453.34 171.58,453.31 C174.92,451.89 178.03,450.64 180.41,449.76 ZM 727.23 493.49 C723.93,492.79 721.04,492.14 718.74,491.57 C719.16,491.52 719.71,491.45 720.39,491.34 C722.87,490.95 724.06,491.09 723.67,491.72 C723.30,492.32 724.09,492.51 725.68,492.21 C727.65,491.83 728.10,492.03 727.49,493.01 C727.37,493.20 727.29,493.36 727.23,493.49 ZM 353.40 492.84 C352.91,492.05 353.37,491.86 354.85,492.25 C356.03,492.56 356.78,492.45 356.51,492.01 C356.24,491.57 357.02,491.21 358.26,491.21 C359.22,491.21 362.11,490.63 365.28,489.82 C362.94,490.51 360.45,491.29 358.12,492.09 C356.51,492.63 355.07,493.12 353.79,493.55 C353.71,493.37 353.58,493.12 353.40,492.84 ZM 964.83 496.76 C964.85,496.64 964.74,496.39 964.50,496.00 C963.86,494.97 964.62,494.82 968.10,495.30 C969.22,495.46 970.04,495.54 970.53,495.54 C968.68,495.95 966.78,496.36 964.83,496.76 ZM 743.19 496.61 C741.22,496.25 739.29,495.89 737.42,495.53 C737.88,495.54 738.73,495.47 739.90,495.30 C743.38,494.82 744.14,494.97 743.50,496.00 C743.33,496.27 743.23,496.47 743.19,496.61 ZM 717.89 491.35 C716.75,491.05 715.78,490.78 715.00,490.54 C713.96,490.21 712.43,489.82 710.72,489.44 C713.63,489.87 716.12,490.14 717.50,490.13 C720.10,490.11 720.24,490.23 718.50,491.03 C718.22,491.16 718.02,491.26 717.89,491.35 ZM 652.60 438.40 C652.19,438.42 651.65,438.48 651.00,438.59 C648.20,439.05 647.80,438.93 649.00,437.99 C649.19,437.84 649.34,437.72 649.47,437.61 C650.51,437.87 651.55,438.13 652.60,438.40 ZM 508.67 475.33 C476.70,474.83 444.78,475.67 429.00,477.97 C444.94,475.65 476.42,474.80 508.67,475.33 ZM 183.01 448.86 C183.00,448.91 183.00,448.95 183.00,449.00 C183.00,449.69 182.33,449.96 181.45,449.62 C181.33,449.57 181.22,449.53 181.12,449.50 C181.83,449.25 182.47,449.03 183.01,448.86 ZM 349.79 489.23 C350.30,488.50 350.54,487.87 350.33,487.66 C350.05,487.39 350.81,486.64 352.00,486.00 C352.02,485.99 352.04,485.98 352.06,485.97 C350.90,486.59 350.18,487.48 350.47,487.95 C350.72,488.35 350.42,488.89 349.79,489.23 ZM 383.27 485.15 C384.97,484.77 387.28,484.36 389.74,484.03 C392.01,483.72 394.23,483.36 396.03,483.03 C394.29,483.36 392.16,483.70 390.00,484.00 C387.46,484.35 385.04,484.77 383.27,485.15 ZM 698.87 487.25 C696.37,486.73 694.08,486.12 692.91,485.64 C691.03,484.87 687.26,483.92 684.52,483.53 C687.26,483.92 691.00,484.86 692.84,485.61 C693.97,486.07 696.19,486.66 698.87,487.25 ZM 374.61 487.46 C375.52,487.27 376.30,487.13 376.88,487.06 C376.16,487.21 375.39,487.34 374.61,487.46 ZM 413.30 409.80 C412.53,409.76 411.73,409.69 410.96,409.59 C410.66,409.55 410.38,409.51 410.11,409.48 C410.53,409.52 410.99,409.57 411.48,409.63 C412.14,409.70 412.74,409.76 413.30,409.80 ZM 648.37 474.06 C648.88,474.18 649.48,474.31 650.21,474.46 L 649.75 474.37 C649.29,474.29 648.82,474.18 648.37,474.06 Z" fill="rgb(11,107,115)"/>
<path d="M 981.69 432.00 L 980.50 439.50 L 963.50 439.60 C925.92,439.84 903.30,438.28 839.00,431.06 C830.07,430.05 813.10,427.52 808.37,426.49 C806.94,426.18 803.33,421.39 797.28,411.76 C789.10,398.75 786.62,395.31 786.56,391.84 C786.54,390.41 786.92,388.98 787.48,386.87 C787.64,386.24 787.83,385.54 788.02,384.77 C793.91,361.31 804.34,344.74 822.34,330.25 C831.11,323.20 845.66,315.83 856.62,312.89 C867.86,309.87 890.52,309.17 902.06,311.48 C930.27,317.13 955.70,335.75 969.69,361.00 C980.76,381.00 985.41,408.48 981.69,432.00 ZM 597.18 408.14 C594.58,411.34 594.30,411.37 584.51,409.43 C571.55,406.85 537.12,402.67 505.75,399.86 C498.19,399.18 492.00,398.35 492.00,398.01 C492.00,397.66 495.65,392.01 500.11,385.44 C523.83,350.53 536.15,333.16 537.57,332.61 C539.94,331.70 543.89,331.87 545.94,332.97 C546.93,333.50 552.83,339.46 559.04,346.22 C565.25,352.97 570.64,358.50 571.03,358.50 C571.80,358.50 579.15,348.87 593.93,328.50 L 594.70 327.42 C625.55,284.90 629.89,278.91 634.13,278.98 C634.86,278.99 635.59,279.18 636.45,279.40 C640.62,280.45 642.13,282.45 680.25,337.63 L 685.18 344.77 L 672.48 361.63 C665.50,370.91 658.88,379.49 657.77,380.70 L 655.75 382.89 L 648.63 376.84 C640.27,369.75 638.00,368.53 634.72,369.36 C632.67,369.87 605.20,398.24 597.18,408.14 ZM 854.23 411.73 C859.86,417.38 864.85,422.00 865.31,422.00 C866.53,422.00 886.97,402.69 886.99,401.52 C887.01,399.93 867.68,381.00 866.04,381.00 C865.21,381.00 859.91,385.60 854.27,391.23 L 844.00 401.47 ZM 823.51 383.93 C827.26,387.82 830.81,391.00 831.39,391.00 C833.11,391.00 846.00,377.70 846.00,375.94 C846.00,374.30 833.91,362.00 832.31,362.00 C831.84,362.00 828.13,365.34 824.07,369.43 L 816.68 376.87 Z" fill="rgb(253,165,31)"/>
<path d="M 0.00 418.00 L 0.00 0.00 L 627.00 0.00 L 1254.00 0.00 L 1254.00 418.00 L 1254.00 836.00 L 627.00 836.00 L 0.00 836.00 L 0.00 418.00 ZM 897.00 505.51 C928.57,503.24 956.90,499.14 977.50,493.86 C988.27,491.10 1003.92,486.44 1007.00,485.07 C1009.32,484.05 1009.24,484.00 1006.00,484.46 C983.57,487.66 917.19,488.65 890.50,486.20 C844.20,481.94 810.43,476.84 776.50,468.99 C774.30,468.48 769.12,467.34 765.00,466.46 C757.53,464.85 729.64,457.89 655.50,439.13 C634.05,433.70 613.12,428.54 609.00,427.66 C545.06,414.02 507.21,409.47 447.77,408.28 C426.13,407.85 419.70,408.01 418.50,409.00 C417.44,409.88 415.29,410.07 411.48,409.63 C407.77,409.19 406.00,409.34 406.00,410.08 C406.00,410.79 404.14,411.06 400.86,410.84 C396.04,410.52 395.70,410.65 395.33,413.00 C395.12,414.38 394.50,415.65 393.96,415.84 C393.43,416.02 393.24,416.58 393.55,417.09 C393.86,417.59 393.61,418.00 393.00,418.00 C392.39,418.00 392.16,418.45 392.50,419.00 C392.84,419.55 392.61,420.00 392.00,420.00 C391.39,420.00 391.16,420.45 391.50,421.00 C391.84,421.55 391.61,422.00 391.00,422.00 C390.39,422.00 390.16,422.45 390.50,423.00 C390.84,423.55 390.61,424.00 390.00,424.00 C389.39,424.00 389.16,424.45 389.50,425.00 C389.84,425.55 389.61,426.00 389.00,426.00 C388.39,426.00 388.16,426.45 388.50,427.00 C388.84,427.55 388.72,428.00 388.23,428.00 C387.73,428.00 387.32,428.56 387.29,429.25 C387.27,429.94 387.08,431.17 386.88,432.00 C386.55,433.31 390.99,433.53 421.77,433.73 C458.83,433.96 468.81,434.67 510.98,440.06 C515.65,440.65 519.92,441.50 520.48,441.94 C521.04,442.38 524.20,443.03 527.50,443.39 C538.14,444.56 541.46,445.11 543.50,446.01 C544.60,446.50 548.20,447.41 551.50,448.04 C554.80,448.67 559.53,449.77 562.00,450.49 C566.26,451.73 570.32,452.73 588.00,456.91 C592.12,457.88 597.08,459.18 599.00,459.79 C600.92,460.40 605.88,461.87 610.00,463.05 C614.12,464.23 619.49,465.83 621.93,466.60 C624.36,467.37 627.18,468.00 628.19,468.00 C629.20,468.00 630.81,468.40 631.76,468.89 C632.72,469.38 635.97,470.34 639.00,471.02 C642.03,471.70 644.95,472.59 645.50,473.00 C646.05,473.41 647.96,474.03 649.75,474.37 C651.54,474.72 654.46,475.28 656.25,475.63 C658.04,475.97 659.95,476.60 660.50,477.03 C661.05,477.46 664.42,478.37 668.00,479.05 C671.58,479.73 675.63,480.86 677.01,481.55 C678.40,482.24 681.77,483.13 684.51,483.53 C687.26,483.92 691.03,484.87 692.91,485.64 C694.79,486.40 699.51,487.50 703.41,488.07 C707.31,488.64 712.53,489.75 715.00,490.54 C723.62,493.26 756.51,499.37 779.76,502.56 C811.68,506.93 860.21,508.16 897.00,505.51 ZM 316.39 503.09 C317.28,502.36 318.00,501.16 318.00,500.43 C318.00,499.70 318.57,498.74 319.26,498.30 C320.86,497.29 329.00,487.46 329.00,486.54 C329.00,486.16 329.56,485.23 330.25,484.46 C333.18,481.19 334.00,480.03 334.00,479.13 C334.00,478.60 334.38,478.02 334.85,477.83 C336.10,477.34 343.00,467.44 343.00,466.13 C343.00,465.51 343.37,465.00 343.83,465.00 C344.29,465.00 345.30,463.76 346.08,462.25 C346.86,460.74 348.29,458.63 349.25,457.56 C350.21,456.50 351.00,455.03 351.00,454.31 C351.00,453.59 351.42,453.00 351.93,453.00 C352.45,453.00 353.18,451.99 353.57,450.75 C353.95,449.51 354.59,448.27 354.99,448.00 C355.87,447.38 360.22,440.00 363.24,434.00 C364.48,431.52 365.82,429.26 366.22,428.96 C366.61,428.67 368.76,424.39 370.99,419.46 C373.23,414.53 375.89,408.70 376.91,406.50 C380.42,398.94 382.08,395.03 383.57,390.81 C385.62,384.98 387.99,369.77 388.00,362.36 C388.00,356.27 385.59,341.29 384.11,338.14 C378.69,326.69 375.65,321.01 374.00,319.23 C372.90,318.05 372.00,316.74 372.00,316.32 C372.00,315.08 361.67,305.00 360.39,305.00 C359.74,305.00 358.94,304.30 358.61,303.44 C358.28,302.58 357.61,302.12 357.11,302.43 C356.62,302.74 355.94,302.29 355.61,301.43 C355.28,300.57 354.56,300.16 354.00,300.50 C353.44,300.84 352.72,300.43 352.39,299.57 C352.06,298.71 351.39,298.26 350.90,298.56 C350.40,298.87 350.00,298.61 350.00,298.00 C350.00,297.39 349.55,297.16 349.00,297.50 C348.45,297.84 348.00,297.61 348.00,297.00 C348.00,296.39 347.55,296.16 347.00,296.50 C346.45,296.84 346.00,296.61 346.00,296.00 C346.00,295.39 345.55,295.16 345.00,295.50 C344.45,295.84 344.00,295.61 344.00,295.00 C344.00,294.39 343.55,294.16 343.00,294.50 C342.45,294.84 342.00,294.74 342.00,294.27 C342.00,293.81 341.03,293.35 339.84,293.26 C338.65,293.17 337.38,292.61 337.01,292.02 C336.64,291.42 335.59,291.22 334.67,291.57 C333.70,291.95 333.00,291.73 333.00,291.05 C333.00,290.41 332.55,290.16 332.00,290.50 C331.45,290.84 330.47,290.79 329.83,290.39 C329.18,289.99 327.49,289.59 326.08,289.50 C324.66,289.40 320.12,288.98 316.00,288.56 C311.19,288.07 305.63,288.24 300.50,289.03 C296.10,289.72 291.49,290.26 290.25,290.24 C289.01,290.23 288.00,290.57 288.00,291.01 C288.00,291.45 287.10,291.58 286.00,291.29 C284.88,291.00 284.00,291.26 284.00,291.88 C284.00,292.50 282.88,293.00 281.50,293.00 C280.12,293.00 279.00,293.37 279.00,293.81 C279.00,294.81 272.50,298.00 270.47,298.00 C269.66,298.00 269.00,298.45 269.00,299.00 C269.00,299.55 268.33,300.00 267.50,300.00 C266.67,300.00 266.00,300.45 266.00,301.00 C266.00,301.55 265.33,302.00 264.50,302.00 C263.67,302.00 263.00,302.45 263.00,303.00 C263.00,303.55 262.57,304.00 262.05,304.00 C260.80,304.00 247.60,317.27 247.84,318.28 C247.94,318.71 247.34,319.32 246.52,319.63 C245.69,319.95 245.26,320.62 245.57,321.11 C245.88,321.61 245.43,322.28 244.57,322.61 C243.71,322.94 243.26,323.61 243.56,324.10 C243.87,324.60 243.61,325.00 243.00,325.00 C242.39,325.00 242.16,325.45 242.50,326.00 C242.84,326.55 242.64,327.00 242.06,327.00 C241.48,327.00 241.09,327.34 241.20,327.75 C241.58,329.19 239.86,333.00 238.83,333.00 C238.25,333.00 238.05,333.67 238.36,334.50 C238.68,335.33 238.61,336.00 238.22,336.00 C237.82,336.00 237.40,337.43 237.28,339.18 C237.15,340.92 236.70,342.61 236.28,342.92 C233.97,344.63 234.05,379.97 236.36,379.99 C236.83,380.00 236.95,380.67 236.64,381.50 C236.32,382.33 236.55,383.00 237.14,383.00 C237.79,383.00 237.97,383.99 237.59,385.50 C237.21,387.01 237.39,388.00 238.04,388.00 C238.63,388.00 238.81,388.50 238.43,389.11 C238.05,389.72 238.15,390.51 238.64,390.86 C240.06,391.87 242.08,397.05 241.45,398.07 C241.14,398.58 241.34,399.00 241.91,399.00 C242.47,399.00 242.68,399.67 242.36,400.50 C242.05,401.33 242.31,402.00 242.95,402.00 C243.59,402.00 243.84,402.45 243.50,403.00 C243.16,403.55 243.29,404.00 243.78,404.00 C245.00,404.00 247.17,408.92 246.45,410.07 C246.14,410.58 246.39,411.00 247.00,411.00 C247.61,411.00 247.84,411.45 247.50,412.00 C247.16,412.55 247.39,413.00 248.00,413.00 C248.61,413.00 248.84,413.45 248.50,414.00 C248.16,414.55 248.39,415.00 249.00,415.00 C249.61,415.00 249.84,415.45 249.50,416.00 C249.16,416.55 249.39,417.00 250.00,417.00 C250.61,417.00 250.84,417.45 250.50,418.00 C250.16,418.55 250.43,419.00 251.11,419.00 C251.78,419.00 252.05,419.28 251.71,419.62 C251.37,419.96 251.75,420.90 252.56,421.70 C253.36,422.50 253.76,423.57 253.45,424.08 C253.14,424.59 253.39,425.00 254.00,425.00 C254.61,425.00 254.84,425.45 254.50,426.00 C254.16,426.55 254.43,427.00 255.11,427.00 C255.78,427.00 256.07,427.26 255.75,427.58 C255.43,427.90 256.05,429.05 257.12,430.12 C258.19,431.19 258.80,432.51 258.48,433.04 C258.15,433.57 258.43,434.00 259.11,434.00 C259.78,434.00 260.06,434.27 259.73,434.61 C259.39,434.94 259.98,436.13 261.03,437.26 C262.07,438.38 262.69,439.68 262.41,440.15 C262.12,440.62 262.39,441.00 263.00,441.00 C263.61,441.00 263.87,441.40 263.56,441.90 C263.26,442.39 263.71,443.06 264.57,443.39 C265.43,443.72 265.85,444.44 265.50,444.99 C265.16,445.55 265.39,446.00 266.00,446.00 C266.61,446.00 266.87,446.40 266.56,446.90 C266.26,447.39 266.75,448.07 267.65,448.42 C268.55,448.76 269.04,449.29 268.75,449.59 C268.45,449.88 269.28,451.28 270.59,452.69 C271.89,454.10 272.72,455.64 272.42,456.13 C272.13,456.61 272.39,457.00 273.00,457.00 C273.61,457.00 273.87,457.40 273.56,457.90 C273.26,458.39 273.71,459.06 274.57,459.39 C275.43,459.72 275.88,460.39 275.57,460.89 C275.26,461.38 275.71,462.06 276.57,462.39 C277.43,462.72 277.88,463.39 277.57,463.89 C277.26,464.38 277.71,465.06 278.57,465.39 C279.43,465.72 279.86,466.42 279.54,466.94 C279.21,467.47 279.90,468.41 281.06,469.03 C282.22,469.65 282.93,470.41 282.63,470.71 C282.33,471.00 283.08,472.08 284.29,473.09 C285.51,474.10 286.06,474.95 285.53,474.97 C284.99,474.99 285.56,475.71 286.79,476.57 C288.03,477.43 288.80,478.51 288.52,478.96 C288.24,479.42 288.71,480.06 289.57,480.39 C290.43,480.72 290.86,481.42 290.54,481.94 C290.21,482.47 290.87,483.39 292.00,484.00 C293.13,484.61 293.81,485.50 293.51,485.98 C293.21,486.47 293.99,487.58 295.23,488.45 C296.48,489.32 297.50,490.41 297.50,490.87 C297.50,491.33 298.95,492.93 300.73,494.42 C302.50,495.92 303.85,497.46 303.73,497.85 C303.60,498.25 305.08,500.00 307.00,501.76 C310.64,505.07 313.51,505.48 316.39,503.09 ZM 358.12 492.09 C364.45,489.94 371.86,487.86 374.57,487.46 C377.28,487.07 379.95,486.39 380.50,485.96 C381.05,485.53 385.33,484.65 390.00,484.00 C394.67,483.36 399.18,482.48 400.01,482.06 C400.83,481.63 406.23,480.75 412.01,480.10 C417.78,479.45 425.42,478.49 429.00,477.97 C457.45,473.83 538.36,474.42 577.50,479.07 C591.10,480.68 595.91,480.79 596.16,479.50 C596.40,478.27 576.00,469.90 574.25,470.50 C573.56,470.74 573.00,470.52 573.00,470.00 C573.00,469.48 572.33,469.32 571.50,469.64 C570.67,469.95 570.00,469.69 570.00,469.05 C570.00,468.41 569.58,468.14 569.07,468.45 C568.05,469.08 562.87,467.06 561.86,465.64 C561.51,465.15 560.72,465.05 560.11,465.43 C559.50,465.81 559.00,465.61 559.00,464.99 C559.00,464.32 558.19,464.12 557.00,464.50 C555.88,464.86 555.00,464.68 555.00,464.10 C555.00,463.53 554.33,463.32 553.50,463.64 C552.67,463.95 552.00,463.72 552.00,463.11 C552.00,462.50 551.66,462.07 551.25,462.16 C550.84,462.25 549.20,461.79 547.62,461.14 C546.03,460.48 543.90,460.22 542.87,460.54 C541.84,460.87 541.00,460.77 541.00,460.32 C541.00,459.87 539.54,459.40 537.76,459.27 C535.97,459.15 534.38,458.63 534.21,458.13 C534.04,457.62 533.03,457.44 531.95,457.72 C530.80,458.03 530.00,457.73 530.00,457.00 C530.00,456.26 529.20,455.98 528.00,456.29 C526.90,456.58 526.00,456.35 526.00,455.80 C526.00,455.17 524.64,455.03 522.50,455.43 C520.58,455.80 519.00,455.68 519.00,455.18 C519.00,454.69 517.88,454.49 516.50,454.76 C515.12,455.02 514.00,454.84 513.99,454.37 C513.99,453.89 512.11,453.39 509.81,453.26 C507.51,453.13 505.33,452.53 504.96,451.94 C504.55,451.27 502.91,451.11 500.65,451.54 C498.33,451.97 497.00,451.84 497.00,451.17 C497.00,450.53 495.64,450.35 493.50,450.69 C491.47,451.02 490.00,450.84 490.00,450.27 C490.00,449.72 488.88,449.49 487.50,449.76 C486.03,450.04 485.00,449.77 485.00,449.10 C485.00,448.35 483.68,448.19 481.00,448.62 C478.11,449.08 477.00,448.91 477.00,447.99 C477.00,447.07 475.78,446.89 472.50,447.34 C469.48,447.76 468.00,447.59 468.00,446.84 C468.00,446.10 466.40,445.90 463.25,446.24 C460.64,446.52 445.67,446.45 430.00,446.08 C414.33,445.71 401.26,445.75 400.96,446.18 C400.66,446.60 395.71,447.00 389.96,447.06 C378.87,447.17 375.65,447.63 376.48,448.97 C376.76,449.42 376.29,450.06 375.43,450.39 C374.57,450.72 374.15,451.44 374.50,451.99 C374.84,452.55 374.61,453.00 374.00,453.00 C373.39,453.00 373.16,453.45 373.50,454.01 C373.85,454.56 373.43,455.28 372.57,455.61 C371.71,455.94 371.26,456.61 371.56,457.10 C371.87,457.60 371.61,458.00 371.00,458.00 C370.39,458.00 370.16,458.45 370.50,459.01 C370.85,459.56 370.43,460.28 369.57,460.61 C368.71,460.94 368.26,461.62 368.57,462.11 C368.88,462.61 368.43,463.28 367.57,463.61 C366.71,463.94 366.26,464.62 366.57,465.11 C366.88,465.61 366.43,466.28 365.57,466.61 C364.71,466.94 364.26,467.62 364.57,468.11 C364.88,468.61 364.43,469.28 363.57,469.61 C362.71,469.94 362.26,470.62 362.57,471.11 C362.88,471.61 362.43,472.28 361.57,472.61 C360.71,472.94 360.26,473.62 360.57,474.11 C360.88,474.61 360.43,475.28 359.57,475.61 C358.71,475.94 358.23,476.57 358.50,477.00 C358.77,477.44 357.70,479.18 356.13,480.86 C354.55,482.55 353.47,484.13 353.72,484.38 C353.97,484.63 353.19,485.36 352.00,486.00 C350.81,486.64 350.05,487.39 350.33,487.66 C350.61,487.94 350.08,489.00 349.17,490.01 C342.55,497.34 342.61,497.35 358.12,492.09 ZM 147.94 470.95 C152.10,469.82 156.40,468.50 157.50,468.02 C158.60,467.54 161.98,466.61 165.00,465.96 C168.02,465.32 171.21,464.43 172.07,464.00 C172.94,463.56 177.44,462.44 182.07,461.50 C186.71,460.56 190.95,459.46 191.50,459.05 C192.05,458.65 195.88,457.74 200.00,457.04 C204.12,456.34 207.99,455.38 208.58,454.90 C209.18,454.42 214.97,453.33 221.46,452.48 C227.94,451.63 234.06,450.50 235.06,449.97 C236.05,449.44 238.39,449.00 240.24,449.00 C242.10,449.00 244.44,448.40 245.44,447.67 C247.07,446.48 247.12,446.05 245.88,443.72 C245.12,442.29 243.47,439.11 242.21,436.66 C240.14,432.63 239.58,432.21 236.46,432.30 C234.56,432.35 233.00,432.78 233.00,433.26 C233.00,433.73 232.53,433.83 231.96,433.48 C230.70,432.69 221.00,435.07 221.00,436.16 C221.00,436.59 220.32,436.68 219.50,436.36 C218.68,436.05 218.00,436.17 218.00,436.64 C218.00,437.11 216.55,437.55 214.79,437.62 C213.03,437.68 211.42,438.25 211.21,438.87 C211.00,439.50 210.37,439.73 209.80,439.38 C209.24,439.03 208.43,439.31 208.00,440.00 C207.58,440.69 206.05,441.25 204.61,441.25 C203.18,441.25 202.00,441.53 202.00,441.88 C202.00,442.22 200.78,442.57 199.28,442.66 C197.78,442.74 196.41,443.28 196.22,443.85 C196.03,444.42 195.28,444.66 194.56,444.39 C193.85,444.11 192.58,444.56 191.75,445.39 C190.92,446.23 189.98,446.65 189.67,446.33 C189.35,446.02 188.36,446.49 187.47,447.39 C186.57,448.29 185.45,448.78 184.97,448.48 C184.04,447.91 167.21,454.85 156.81,460.09 C149.02,464.02 139.00,470.74 139.00,472.04 C139.00,473.33 139.26,473.30 147.94,470.95 ZM 981.69 432.00 C985.41,408.48 980.76,381.00 969.69,361.00 C955.70,335.75 930.27,317.13 902.06,311.48 C890.52,309.17 867.86,309.87 856.62,312.89 C845.66,315.83 831.11,323.20 822.34,330.25 C804.34,344.74 793.91,361.31 788.02,384.77 C785.61,394.38 784.73,391.80 797.28,411.76 C803.33,421.39 806.94,426.18 808.37,426.49 C813.10,427.52 830.07,430.05 839.00,431.06 C903.30,438.28 925.92,439.84 963.50,439.60 L 980.50 439.50 L 981.69 432.00 ZM 597.18 408.14 C605.20,398.24 632.67,369.87 634.72,369.36 C638.00,368.53 640.27,369.75 648.63,376.84 L 655.75 382.89 L 657.77 380.70 C658.88,379.49 665.50,370.91 672.48,361.63 L 685.18 344.77 L 680.25 337.63 C642.13,282.45 640.62,280.45 636.45,279.40 C630.56,277.92 630.86,277.57 593.93,328.50 C579.15,348.87 571.80,358.50 571.03,358.50 C570.64,358.50 565.25,352.97 559.04,346.22 C552.83,339.46 546.93,333.50 545.94,332.97 C543.89,331.87 539.94,331.70 537.57,332.61 C536.15,333.16 523.83,350.53 500.11,385.44 C495.65,392.01 492.00,397.66 492.00,398.01 C492.00,398.35 498.19,399.18 505.75,399.86 C537.12,402.67 571.55,406.85 584.51,409.43 C594.30,411.37 594.58,411.34 597.18,408.14 ZM 297.99 400.66 C289.61,397.70 286.78,395.83 279.65,388.51 C271.09,379.73 267.76,372.09 267.65,361.00 C267.55,350.25 271.80,335.78 275.47,334.37 C276.31,334.05 277.00,333.24 277.00,332.57 C277.00,331.07 281.21,327.00 282.76,327.00 C283.39,327.00 284.36,326.21 284.92,325.25 C285.48,324.29 285.95,323.92 285.97,324.44 C285.99,324.95 286.91,324.40 288.03,323.20 C289.14,322.00 291.28,320.73 292.78,320.37 C294.27,320.02 295.95,319.38 296.50,318.95 C298.41,317.47 310.27,315.87 314.38,316.54 C319.18,317.32 329.21,320.54 333.12,322.56 C336.23,324.17 347.49,335.12 347.19,336.25 C347.09,336.66 347.44,337.00 347.98,337.00 C349.32,337.00 353.22,344.83 352.48,346.03 C352.15,346.57 352.37,347.00 352.96,347.00 C353.61,347.00 353.79,347.99 353.41,349.50 C352.99,351.16 353.20,352.00 354.03,352.00 C355.69,352.00 354.83,372.22 353.14,372.79 C352.50,373.00 352.23,373.57 352.53,374.05 C353.24,375.19 349.26,383.00 347.98,383.00 C347.44,383.00 347.11,383.37 347.25,383.82 C347.51,384.65 338.63,394.00 337.58,394.00 C337.26,394.00 336.10,394.90 335.00,396.00 C333.90,397.10 332.10,398.00 331.00,398.00 C329.90,398.00 329.00,398.39 329.00,398.87 C329.00,400.40 317.58,403.00 310.93,402.98 C306.82,402.97 302.15,402.13 297.99,400.66 ZM 854.23 411.73 L 844.00 401.47 L 854.27 391.23 C859.91,385.60 865.21,381.00 866.04,381.00 C867.68,381.00 887.01,399.93 886.99,401.52 C886.97,402.69 866.53,422.00 865.31,422.00 C864.85,422.00 859.86,417.38 854.23,411.73 ZM 823.51 383.93 L 816.68 376.87 L 824.07 369.43 C828.13,365.34 831.84,362.00 832.31,362.00 C833.91,362.00 846.00,374.30 846.00,375.94 C846.00,377.70 833.11,391.00 831.39,391.00 C830.81,391.00 827.26,387.82 823.51,383.93 Z" fill="rgb(254,254,254)"/>
</g>
</svg>