<svg width="1600" height="900" viewBox="0 0 1600 900" fill="none" xmlns="http://www.w3.org/2000/svg">
  <defs>
    <linearGradient id="bg" x1="0" y1="0" x2="1600" y2="900" gradientUnits="userSpaceOnUse">
      <stop stop-color="#071629"/>
      <stop offset="1" stop-color="#142846"/>
    </linearGradient>
    <filter id="glow" x="-50%" y="-50%" width="200%" height="200%">
      <feGaussianBlur stdDeviation="4" result="blur"/>
      <feMerge>
        <feMergeNode in="blur"/>
        <feMergeNode in="SourceGraphic"/>
      </feMerge>
    </filter>
  </defs>

  <rect width="1600" height="900" fill="url(#bg)"/>
  <rect x="70" y="60" width="1460" height="780" rx="28" fill="#0D1B35" stroke="#284466"/>

  <g opacity="0.25" stroke="#35547E" stroke-width="1">
    <path d="M70 190H1530"/><path d="M70 320H1530"/><path d="M70 450H1530"/><path d="M70 580H1530"/><path d="M70 710H1530"/>
    <path d="M320 60V840"/><path d="M610 60V840"/><path d="M900 60V840"/><path d="M1190 60V840"/>
  </g>

  <rect x="220" y="230" width="1160" height="430" rx="22" fill="#0C1A32" stroke="#37557E" stroke-width="3"/>
  <path d="M220 290H1380" stroke="#EF4444" stroke-dasharray="16 14" stroke-width="5"/>
  <path d="M220 600H1380" stroke="#22C55E" stroke-dasharray="16 14" stroke-width="5"/>
  <text x="1245" y="275" fill="#FECACA" font-family="'Segoe UI', 'Hiragino Kaku Gothic ProN', 'Yu Gothic', sans-serif" font-size="24" font-weight="700">上限ライン</text>
  <text x="1245" y="640" fill="#BBF7D0" font-family="'Segoe UI', 'Hiragino Kaku Gothic ProN', 'Yu Gothic', sans-serif" font-size="24" font-weight="700">下限ライン</text>

  <path d="M250 560L320 510L380 520L450 450L520 430L600 470L680 550L760 580L830 540L910 470L980 410L1050 430L1120 500L1210 560L1300 590L1360 560" stroke="#60A5FA" stroke-width="9" stroke-linecap="round" stroke-linejoin="round" filter="url(#glow)"/>

  <circle cx="450" cy="450" r="22" fill="#F59E0B"/><text x="442" y="458" fill="#111827" font-family="'Segoe UI', sans-serif" font-size="20" font-weight="700">1</text>
  <circle cx="910" cy="470" r="22" fill="#F59E0B"/><text x="902" y="478" fill="#111827" font-family="'Segoe UI', sans-serif" font-size="20" font-weight="700">2</text>
  <circle cx="1300" cy="590" r="22" fill="#22C55E"/><text x="1292" y="598" fill="#05270E" font-family="'Segoe UI', sans-serif" font-size="20" font-weight="700">3</text>

  <path d="M450 360V420" stroke="#F59E0B" stroke-width="6" stroke-linecap="round"/>
  <path d="M450 360L438 377" stroke="#F59E0B" stroke-width="6" stroke-linecap="round"/>
  <path d="M450 360L462 377" stroke="#F59E0B" stroke-width="6" stroke-linecap="round"/>
  <path d="M1300 520V575" stroke="#22C55E" stroke-width="6" stroke-linecap="round"/>
  <path d="M1300 575L1288 558" stroke="#22C55E" stroke-width="6" stroke-linecap="round"/>
  <path d="M1300 575L1312 558" stroke="#22C55E" stroke-width="6" stroke-linecap="round"/>

  <rect x="420" y="690" width="760" height="90" rx="14" fill="#10233D" stroke="#2D4F7B"/>
  <text x="452" y="745" fill="#D8EAFF" font-family="'Segoe UI', 'Hiragino Kaku Gothic ProN', 'Yu Gothic', sans-serif" font-size="28">①上限/下限を確認 → ②反転足を待つ → ③短期で逆張り</text>

  <rect x="120" y="98" width="400" height="118" rx="18" fill="#15294E" stroke="#2A4678"/>
  <text x="148" y="152" fill="#E8F0FF" font-family="'Segoe UI', 'Hiragino Kaku Gothic ProN', 'Yu Gothic', sans-serif" font-size="44" font-weight="700">レンジ逆張り戦略</text>
  <text x="148" y="188" fill="#9CB6E1" font-family="'Segoe UI', 'Hiragino Kaku Gothic ProN', 'Yu Gothic', sans-serif" font-size="24">上限・下限で反発確認して短期判定</text>

  <rect x="1090" y="90" width="340" height="110" rx="16" fill="#102033" stroke="#29466B"/>
  <text x="1122" y="152" fill="#D5E5FF" font-family="'Segoe UI', 'Hiragino Kaku Gothic ProN', 'Yu Gothic', sans-serif" font-size="30" font-weight="700">レンジ内で有効</text>
</svg>
